{
  "source": "C:\\Users\\Peter\\Desktop\\stuff\\MIUN\\quantitative_research\\video_compression\\videos\\BVI-HD\\BVI-HD_CDVL_videos\\ORIG\\CloudsZoom_1920x1080_60fps.mp4",
  "output": "C:\\Users\\Peter\\Desktop\\stuff\\MIUN\\quantitative_research\\video_compression\\compressed_videos\\BVI-HD\\h264\\4\\CloudsZoom_1920x1080_60fps_h264.mp4",
  "codec": "h264",
  "ok": "Input #0, mov,mp4,m4a,3gp,3g2,mj2, from 'C:\\Users\\Peter\\Desktop\\stuff\\MIUN\\quantitative_research\\video_compression\\videos\\BVI-HD\\BVI-HD_CDVL_videos\\ORIG\\CloudsZoom_1920x1080_60fps.mp4':\n  Metadata:\n    major_brand     : isom\n    minor_version   : 512\n    compatible_brands: isomiso2avc1mp41\n    encoder         : Lavf54.28.101\n  Duration: 00:00:05.00, start: 0.000000, bitrate: 32589 kb/s\n  Stream #0:0[0x1](und): Video: h264 (High 4:4:4 Predictive) (avc1 / 0x31637661), yuv420p(progressive), 1920x1080, 32586 kb/s, 60 fps, 60 tbr, 60 tbn (default)\n    Metadata:\n      handler_name    : VideoHandler\n      vendor_id       : [0][0][0][0]\n[out#0/mp4 @ 00000164ac079a80] Codec AVOption b:a (set bitrate (in bits/s)) has not been used for any stream. The most likely reason is either wrong type (e.g. a video option with no video streams) or that it is a private option of some decoder which was not actually used for any stream.\nStream mapping:\n  Stream #0:0 -> #0:0 (h264 (native) -> h264 (libx264))\nPress [q] to stop, [?] for help\n[libx264 @ 00000164ac860b40] using cpu capabilities: MMX2 SSE2Fast SSSE3 SSE4.2 AVX FMA3 BMI2 AVX2\n[libx264 @ 00000164ac860b40] profile High, level 5.0, 4:2:0, 8-bit\n[libx264 @ 00000164ac860b40] 264 - core 165 r3222 b35605a - H.264/MPEG-4 AVC codec - Copyleft 2003-2025 - http://www.videolan.org/x264.html - options: cabac=1 ref=5 deblock=1:0:0 analyse=0x3:0x113 me=hex subme=8 psy=1 psy_rd=1.00:0.00 mixed_ref=1 me_range=16 chroma_me=1 trellis=2 8x8dct=1 cqm=0 deadzone=21,11 fast_pskip=1 chroma_qp_offset=-2 threads=18 lookahead_threads=3 sliced_threads=0 nr=0 decimate=1 interlaced=0 bluray_compat=0 constrained_intra=0 bframes=3 b_pyramid=2 b_adapt=1 b_bias=0 direct=3 weightb=1 open_gop=0 weightp=2 keyint=250 keyint_min=25 scenecut=40 intra_refresh=0 rc_lookahead=50 rc=cbr mbtree=1 bitrate=4000 ratetol=1.0 qcomp=0.60 qpmin=0 qpmax=69 qpstep=4 vbv_maxrate=4000 vbv_bufsize=4000 nal_hrd=none filler=0 ip_ratio=1.40 aq=1:1.00\nOutput #0, mp4, to 'C:\\Users\\Peter\\Desktop\\stuff\\MIUN\\quantitative_research\\video_compression\\compressed_videos\\BVI-HD\\h264\\4\\CloudsZoom_1920x1080_60fps_h264.mp4':\n  Metadata:\n    major_brand     : isom\n    minor_version   : 512\n    compatible_brands: isomiso2avc1mp41\n    encoder         : Lavf62.3.100\n  Stream #0:0(und): Video: h264 (avc1 / 0x31637661), yuv420p(tv, progressive), 1920x1080, q=2-31, 4000 kb/s, 60 fps, 15360 tbn (default)\n    Metadata:\n      encoder         : Lavc62.11.100 libx264\n      handler_name    : VideoHandler\n      vendor_id       : [0][0][0][0]\n    Side data:\n      cpb: bitrate max/min/avg: 4000000/0/4000000 buffer size: 4000000 vbv_delay: N/A\nframe=    0 fps=0.0 q=0.0 size=       0KiB time=N/A bitrate=N/A speed=N/A elapsed=0:00:00.52    \nframe=   31 fps= 27 q=25.0 size=       0KiB time=00:00:00.41 bitrate=   0.9kbits/s speed=0.362x elapsed=0:00:01.15    \nframe=   61 fps= 35 q=25.0 size=     256KiB time=00:00:00.98 bitrate=2133.1kbits/s speed=0.557x elapsed=0:00:01.76    \nframe=   93 fps= 40 q=26.0 size=     512KiB time=00:00:01.48 bitrate=2827.9kbits/s speed=0.639x elapsed=0:00:02.32    \nframe=  137 fps= 47 q=26.0 size=    1024KiB time=00:00:02.13 bitrate=3932.3kbits/s speed=0.739x elapsed=0:00:02.88    \nframe=  163 fps= 47 q=25.0 size=    1024KiB time=00:00:02.58 bitrate=3247.4kbits/s speed=0.74x elapsed=0:00:03.49    \nframe=  194 fps= 47 q=26.0 size=    1280KiB time=00:00:03.15 bitrate=3328.9kbits/s speed=0.769x elapsed=0:00:04.09    \nframe=  221 fps= 47 q=26.0 size=    1536KiB time=00:00:03.65 bitrate=3447.5kbits/s speed=0.778x elapsed=0:00:04.68    \nframe=  250 fps= 48 q=26.0 size=    1792KiB time=00:00:04.11 bitrate=3566.1kbits/s speed=0.783x elapsed=0:00:05.26    \nframe=  285 fps= 49 q=-1.0 size=    2048KiB time=00:00:04.61 bitrate=3634.1kbits/s speed=0.793x elapsed=0:00:05.81    \n[mp4 @ 00000164ac081180] Starting second pass: moving the moov atom to the beginning of the file\n[out#0/mp4 @ 00000164ac079a80] video:2367KiB audio:0KiB subtitle:0KiB other streams:0KiB global headers:0KiB muxing overhead: 0.185131%\nframe=  300 fps= 50 q=-1.0 Lsize=    2371KiB time=00:00:04.96 bitrate=3911.2kbits/s speed=0.82x elapsed=0:00:06.05    \n[libx264 @ 00000164ac860b40] frame I:2     Avg QP:12.58  size: 31426\n[libx264 @ 00000164ac860b40] frame P:76    Avg QP:15.61  size: 12915\n[libx264 @ 00000164ac860b40] frame B:222   Avg QP:16.65  size:  6210\n[libx264 @ 00000164ac860b40] consecutive B-frames:  1.3%  0.0%  0.0% 98.7%\n[libx264 @ 00000164ac860b40] mb I  I16..4: 12.2% 87.7%  0.1%\n[libx264 @ 00000164ac860b40] mb P  I16..4:  1.7% 18.7%  0.0%  P16..4: 31.1%  7.4%  3.1%  0.0%  0.0%    skip:38.0%\n[libx264 @ 00000164ac860b40] mb B  I16..4:  0.3%  2.4%  0.0%  B16..8: 33.5%  6.1%  0.1%  direct: 4.4%  skip:53.3%  L0:60.8% L1:38.7% BI: 0.5%\n[libx264 @ 00000164ac860b40] 8x8 transform intra:90.7% inter:95.6%\n[libx264 @ 00000164ac860b40] direct mvs  spatial:95.5% temporal:4.5%\n[libx264 @ 00000164ac860b40] coded y,uvDC,uvAC intra: 23.0% 16.4% 0.9% inter: 1.9% 10.1% 0.1%\n[libx264 @ 00000164ac860b40] i16 v,h,dc,p: 32% 21% 43%  4%\n[libx264 @ 00000164ac860b40] i8 v,h,dc,ddl,ddr,vr,hd,vl,hu: 13% 11% 74%  0%  0%  0%  0%  0%  0%\n[libx264 @ 00000164ac860b40] i4 v,h,dc,ddl,ddr,vr,hd,vl,hu: 19% 24% 32%  2%  7%  5%  9%  1%  1%\n[libx264 @ 00000164ac860b40] i8c dc,h,v,p: 73% 17% 10%  1%\n[libx264 @ 00000164ac860b40] Weighted P-Frames: Y:0.0% UV:0.0%\n[libx264 @ 00000164ac860b40] ref P L0: 44.3%  1.2% 31.2% 13.5%  9.9%\n[libx264 @ 00000164ac860b40] ref B L0: 56.5% 30.5% 10.3%  2.8%\n[libx264 @ 00000164ac860b40] ref B L1: 85.6% 14.4%\n[libx264 @ 00000164ac860b40] kb/s:3876.68\n",
  "seconds": 6.3197596073150635,
  "probe_out": {}
}